<svg xmlns="http://www.w3.org/2000/svg" width="248" height="132.611" viewBox="0 0 248 132.611">
    <defs>
        <style>
            .prefix__cls-1{fill:#0b2b3a}.prefix__cls-2{fill:#f07261}
        </style>
    </defs>
    <g id="prefix__logo" transform="translate(-292.277 -265.693)">
        <path id="prefix__Path_6583" d="M588.613 317.72h15.155q12.45 0 17.732 2.224a18.17 18.17 0 0 1 8.5 7.384 22.632 22.632 0 0 1 3.216 12.214 20.812 20.812 0 0 1-3.551 12.392q-3.55 4.983-10.7 7.538l17.8 33.421h-15.64l-16.9-31.837h-1.309v31.837h-14.3zm14.3 29.385h4.487q6.823 0 9.4-1.795t2.571-5.948a7.278 7.278 0 0 0-1.273-4.28 7.064 7.064 0 0 0-3.413-2.616q-2.138-.8-7.843-.8h-3.922z" class="prefix__cls-1" data-name="Path 6583" transform="translate(-96.485 -16.928)"/>
        <path id="prefix__Path_6584" d="M292.277 317.72h14.2v75.174h-14.2z" class="prefix__cls-1" data-name="Path 6584" transform="translate(0 -16.928)"/>
        <path id="prefix__Path_6585" d="M503.041 314q13.788 0 23.711 11.73t9.922 28.6q0 16.712-9.79 28.287t-23.755 11.574q-14.63 0-24.308-11.886t-9.679-28.234a45.083 45.083 0 0 1 4.508-20.139 36.842 36.842 0 0 1 12.4-14.559A29.617 29.617 0 0 1 503.041 314zm-.133 16.33a17.456 17.456 0 0 0-13.928 6.77q-5.646 6.769-5.645 17.209 0 11.632 7.107 18.4A17.791 17.791 0 0 0 503.111 378q8.081 0 13.766-6.864t5.686-16.923a25.742 25.742 0 0 0-5.726-16.947q-5.726-6.932-13.929-6.932z" class="prefix__cls-1" data-name="Path 6585" transform="translate(-57.586 -15.719)"/>
        <g id="prefix__Group_1297" data-name="Group 1297" transform="translate(292.747 388.057)">
            <path id="prefix__Path_6586" d="M292.974 447.434h1.994l1.82 3.51 1.811-3.51h1.969l-2.855 5.532v4.225h-1.87v-4.225z" class="prefix__cls-2" data-name="Path 6586" transform="translate(-292.974 -447.189)"/>
            <path id="prefix__Path_6587" d="M313.276 447.071a4.843 4.843 0 0 1 3.559 1.5 4.99 4.99 0 0 1 1.489 3.655 4.931 4.931 0 0 1-1.47 3.615 5.09 5.09 0 0 1-7.215-.04 5.126 5.126 0 0 1 3.636-8.728zm-.02 1.817a3.063 3.063 0 0 0-2.277.942 3.281 3.281 0 0 0-.923 2.394 3.12 3.12 0 0 0 1.162 2.561 3.18 3.18 0 0 0 2.07.736 3.024 3.024 0 0 0 2.25-.955 3.444 3.444 0 0 0-.007-4.712 3.055 3.055 0 0 0-2.275-.966z" class="prefix__cls-2" data-name="Path 6587" transform="translate(-297.927 -447.071)"/>
            <path id="prefix__Path_6588" d="M328.133 447.434H330v6.309a3.249 3.249 0 0 0 .143 1.153 1.143 1.143 0 0 0 .47.54 1.483 1.483 0 0 0 .792.2 1.543 1.543 0 0 0 .846-.225 1.19 1.19 0 0 0 .491-.573 4.266 4.266 0 0 0 .136-1.328v-6.078h1.863v5.817a8.432 8.432 0 0 1-.166 2.043 2.894 2.894 0 0 1-.633 1.1 2.932 2.932 0 0 1-1.078.786 3.657 3.657 0 0 1-1.419.256 3.429 3.429 0 0 1-1.847-.488 2.844 2.844 0 0 1-1.124-1.22 6.452 6.452 0 0 1-.338-2.477z" class="prefix__cls-2" data-name="Path 6588" transform="translate(-304.422 -447.189)"/>
            <path id="prefix__Path_6589" d="M343.724 447.434h1.967a6.488 6.488 0 0 1 2.3.289 2.351 2.351 0 0 1 1.1.959 2.939 2.939 0 0 1 .418 1.585 2.7 2.7 0 0 1-.461 1.609 2.794 2.794 0 0 1-1.389.978l2.311 4.338h-2.029l-2.194-4.132h-.17v4.132h-1.857zm1.857 3.814h.582a2.278 2.278 0 0 0 1.219-.232.877.877 0 0 0 .334-.772.94.94 0 0 0-.165-.555.909.909 0 0 0-.443-.34 3.351 3.351 0 0 0-1.018-.1h-.509z" class="prefix__cls-2" data-name="Path 6589" transform="translate(-309.498 -447.189)"/>
            <path id="prefix__Path_6590" d="M365.674 447.434h1.969a6.492 6.492 0 0 1 2.3.295 2.35 2.35 0 0 1 1.114.955 2.953 2.953 0 0 1 .407 1.582 2.657 2.657 0 0 1-.534 1.7 2.767 2.767 0 0 1-1.449.941 8.275 8.275 0 0 1-1.956.153v4.132h-1.857zm1.857 3.814h.59a3.213 3.213 0 0 0 .968-.1.862.862 0 0 0 .428-.33.966.966 0 0 0 .156-.556.887.887 0 0 0-.438-.824 2.483 2.483 0 0 0-1.18-.194h-.524z" class="prefix__cls-2" data-name="Path 6590" transform="translate(-316.645 -447.189)"/>
            <path id="prefix__Path_6591" d="M379.387 447.434h5.324v1.818h-3.481v1.764h3.481v1.784h-3.481v2.567h3.481v1.824h-5.324z" class="prefix__cls-2" data-name="Path 6591" transform="translate(-321.109 -447.189)"/>
            <path id="prefix__Path_6592" d="M392.452 447.434h1.967a6.482 6.482 0 0 1 2.3.289 2.356 2.356 0 0 1 1.1.959 2.938 2.938 0 0 1 .417 1.585 2.708 2.708 0 0 1-.461 1.609 2.8 2.8 0 0 1-1.389.978l2.31 4.338h-2.029l-2.193-4.132h-.17v4.132h-1.857zm1.857 3.814h.582a2.28 2.28 0 0 0 1.219-.232.877.877 0 0 0 .334-.772.945.945 0 0 0-.165-.555.912.912 0 0 0-.443-.34 3.354 3.354 0 0 0-1.018-.1h-.509z" class="prefix__cls-2" data-name="Path 6592" transform="translate(-325.363 -447.189)"/>
            <path id="prefix__Path_6593" d="M411.074 448.643l-1.375 1.214a1.95 1.95 0 0 0-1.474-1.009.9.9 0 0 0-.6.2.573.573 0 0 0-.233.441.752.752 0 0 0 .166.464 12.6 12.6 0 0 0 1.361 1.254q1.063.888 1.289 1.121a3.9 3.9 0 0 1 .8 1.092 2.726 2.726 0 0 1 .236 1.137 2.609 2.609 0 0 1-.83 1.984 3.025 3.025 0 0 1-2.163.783 3.215 3.215 0 0 1-1.815-.511 4.032 4.032 0 0 1-1.325-1.6l1.561-.942q.7 1.293 1.621 1.293a1.2 1.2 0 0 0 .8-.278.831.831 0 0 0 .325-.644 1.116 1.116 0 0 0-.245-.664 7.139 7.139 0 0 0-1.083-1.015 10.937 10.937 0 0 1-2.059-2.006 2.549 2.549 0 0 1-.465-1.409 2.3 2.3 0 0 1 .773-1.741 2.68 2.68 0 0 1 1.909-.726 3.013 3.013 0 0 1 1.391.338 5.059 5.059 0 0 1 1.435 1.224z" class="prefix__cls-2" data-name="Path 6593" transform="translate(-329.486 -447.071)"/>
            <path id="prefix__Path_6594" d="M423.62 447.071a4.844 4.844 0 0 1 3.56 1.5 4.99 4.99 0 0 1 1.489 3.655 4.931 4.931 0 0 1-1.469 3.615 5.09 5.09 0 0 1-7.215-.04 5.126 5.126 0 0 1 3.636-8.728zm-.02 1.817a3.063 3.063 0 0 0-2.277.942 3.28 3.28 0 0 0-.923 2.394 3.12 3.12 0 0 0 1.162 2.561 3.18 3.18 0 0 0 2.07.736 3.022 3.022 0 0 0 2.25-.955 3.442 3.442 0 0 0-.007-4.712 3.052 3.052 0 0 0-2.275-.966z" class="prefix__cls-2" data-name="Path 6594" transform="translate(-333.855 -447.071)"/>
            <path id="prefix__Path_6595" d="M438.587 447.434h1.78l4.174 6.421v-6.421h1.859v9.757h-1.787l-4.168-6.4v6.4h-1.857z" class="prefix__cls-2" data-name="Path 6595" transform="translate(-340.385 -447.189)"/>
            <path id="prefix__Path_6596" d="M458.484 447.434h1.883l3.752 9.757h-1.929l-.763-2.01h-3.98l-.794 2.01h-1.93zm.954 2.587l-1.309 3.35h2.61z" class="prefix__cls-2" data-name="Path 6596" transform="translate(-345.638 -447.189)"/>
            <path id="prefix__Path_6597" d="M473.2 447.434h1.857v7.986h2.705v1.771H473.2z" class="prefix__cls-2" data-name="Path 6597" transform="translate(-351.654 -447.189)"/>
            <path id="prefix__Path_6598" d="M492.525 447.434h1.857v7.986h2.705v1.771h-4.562z" class="prefix__cls-2" data-name="Path 6598" transform="translate(-357.946 -447.189)"/>
            <path id="prefix__Path_6599" d="M506.4 447.434h1.882l3.752 9.757H510.1l-.763-2.01h-3.98l-.794 2.01h-1.929zm.953 2.587l-1.308 3.35h2.609z" class="prefix__cls-2" data-name="Path 6599" transform="translate(-361.238 -447.189)"/>
            <path id="prefix__Path_6600" d="M521.111 457.191v-9.757h1.534a7.913 7.913 0 0 1 1.951.173 2.607 2.607 0 0 1 1.395.862 2.264 2.264 0 0 1 .518 1.486 2.169 2.169 0 0 1-.235 1.011 2.584 2.584 0 0 1-.766.853 3.052 3.052 0 0 1 1.3 1.045 2.64 2.64 0 0 1 .411 1.482 2.761 2.761 0 0 1-.425 1.5 2.715 2.715 0 0 1-1.1 1.012 4.208 4.208 0 0 1-1.852.335zm1.857-7.986v2.056h.407a1.509 1.509 0 0 0 1.008-.285.971.971 0 0 0 .329-.776.908.908 0 0 0-.313-.727 1.433 1.433 0 0 0-.952-.269zm0 3.715v2.5h.466a2.874 2.874 0 0 0 1.559-.292.981.981 0 0 0 .4-.849 1.188 1.188 0 0 0-.472-.994 2.6 2.6 0 0 0-1.569-.365z" class="prefix__cls-2" data-name="Path 6600" transform="translate(-367.254 -447.189)"/>
            <path id="prefix__Path_6601" d="M545.855 447.434h1.882l3.752 9.757h-1.93l-.763-2.01h-3.98l-.794 2.01h-1.929zm.953 2.587l-1.308 3.35h2.609z" class="prefix__cls-2" data-name="Path 6601" transform="translate(-374.085 -447.189)"/>
            <path id="prefix__Path_6602" d="M565.282 448.643l-1.375 1.214a1.948 1.948 0 0 0-1.474-1.009.9.9 0 0 0-.6.2.573.573 0 0 0-.233.441.755.755 0 0 0 .166.464 12.678 12.678 0 0 0 1.362 1.254q1.062.888 1.288 1.121a3.887 3.887 0 0 1 .8 1.092 2.735 2.735 0 0 1 .235 1.137 2.611 2.611 0 0 1-.829 1.984 3.028 3.028 0 0 1-2.164.783 3.216 3.216 0 0 1-1.816-.511 4.032 4.032 0 0 1-1.324-1.6l1.561-.942q.7 1.293 1.621 1.293a1.2 1.2 0 0 0 .8-.278.831.831 0 0 0 .325-.644 1.116 1.116 0 0 0-.245-.664 7.138 7.138 0 0 0-1.083-1.015 10.933 10.933 0 0 1-2.059-2.006 2.556 2.556 0 0 1-.465-1.409 2.306 2.306 0 0 1 .774-1.741 2.681 2.681 0 0 1 1.909-.726 3.013 3.013 0 0 1 1.391.338 5.064 5.064 0 0 1 1.435 1.224z" class="prefix__cls-2" data-name="Path 6602" transform="translate(-379.695 -447.071)"/>
            <path id="prefix__Path_6603" d="M578.17 448.643l-1.375 1.214a1.948 1.948 0 0 0-1.475-1.009.9.9 0 0 0-.6.2.571.571 0 0 0-.233.441.754.754 0 0 0 .166.464 12.672 12.672 0 0 0 1.362 1.254q1.061.888 1.288 1.121a3.888 3.888 0 0 1 .8 1.092 2.725 2.725 0 0 1 .236 1.137 2.61 2.61 0 0 1-.83 1.984 3.026 3.026 0 0 1-2.164.783 3.215 3.215 0 0 1-1.815-.511 4.028 4.028 0 0 1-1.324-1.6l1.561-.942q.7 1.293 1.621 1.293a1.192 1.192 0 0 0 .8-.278.83.83 0 0 0 .326-.644 1.116 1.116 0 0 0-.245-.664 7.176 7.176 0 0 0-1.083-1.015 10.945 10.945 0 0 1-2.06-2.006 2.555 2.555 0 0 1-.465-1.409 2.307 2.307 0 0 1 .774-1.741 2.682 2.682 0 0 1 1.908-.726 3.013 3.013 0 0 1 1.391.338 5.08 5.08 0 0 1 1.436 1.224z" class="prefix__cls-2" data-name="Path 6603" transform="translate(-383.891 -447.071)"/>
            <path id="prefix__Path_6604" d="M586.148 447.434h1.843v9.757h-1.843z" class="prefix__cls-2" data-name="Path 6604" transform="translate(-388.429 -447.189)"/>
            <path id="prefix__Path_6605" d="M599.107 448.643l-1.376 1.214a1.948 1.948 0 0 0-1.474-1.009.9.9 0 0 0-.6.2.572.572 0 0 0-.232.441.754.754 0 0 0 .166.464 12.559 12.559 0 0 0 1.362 1.254q1.062.888 1.288 1.121a3.89 3.89 0 0 1 .8 1.092 2.737 2.737 0 0 1 .235 1.137 2.611 2.611 0 0 1-.83 1.984 3.026 3.026 0 0 1-2.164.783 3.213 3.213 0 0 1-1.815-.511 4.026 4.026 0 0 1-1.325-1.6l1.56-.942q.7 1.293 1.621 1.293a1.194 1.194 0 0 0 .8-.278.831.831 0 0 0 .325-.644 1.117 1.117 0 0 0-.245-.664 7.117 7.117 0 0 0-1.082-1.015 10.922 10.922 0 0 1-2.06-2.006 2.556 2.556 0 0 1-.465-1.409 2.305 2.305 0 0 1 .774-1.741 2.682 2.682 0 0 1 1.909-.726 3.012 3.012 0 0 1 1.391.338 5.071 5.071 0 0 1 1.437 1.224z" class="prefix__cls-2" data-name="Path 6605" transform="translate(-390.708 -447.071)"/>
            <path id="prefix__Path_6606" d="M605.856 447.434h5.391v1.831h-1.777v7.926h-1.884v-7.926h-1.73z" class="prefix__cls-2" data-name="Path 6606" transform="translate(-394.846 -447.189)"/>
            <path id="prefix__Path_6607" d="M620.749 447.434h1.882l3.752 9.757h-1.929l-.763-2.01h-3.98l-.794 2.01h-1.93zm.953 2.587l-1.309 3.35H623z" class="prefix__cls-2" data-name="Path 6607" transform="translate(-398.47 -447.189)"/>
            <path id="prefix__Path_6608" d="M635.474 447.434h1.781l4.173 6.421v-6.421h1.857v9.757H641.5l-4.168-6.4v6.4h-1.857z" class="prefix__cls-2" data-name="Path 6608" transform="translate(-404.49 -447.189)"/>
            <path id="prefix__Path_6609" d="M651.351 447.434h5.391v1.831h-1.777v7.926h-1.884v-7.926h-1.73z" class="prefix__cls-2" data-name="Path 6609" transform="translate(-409.659 -447.189)"/>
        </g>
        <path id="prefix__Path_6610" d="M349.277 277.926c2.862-6.944 10.477-11.48 17.765-12.233a15.949 15.949 0 0 1-2.545 5.249q2.495 3.744 5.07 7.449a22.665 22.665 0 0 0-9.189 6.022q-2.466-3.67-4.961-7.32a30.616 30.616 0 0 1-6.14.833z" class="prefix__cls-2" data-name="Path 6610" transform="translate(-18.559)"/>
        <path id="prefix__Path_6611" d="M392.033 329.106a23.138 23.138 0 0 0 9.07-6.18c4.773 7.151 9.655 14.243 14.477 21.366q-4.857 2.586-9.714 5.18-6.936-10.178-13.833-20.366z" class="prefix__cls-2" data-name="Path 6611" transform="translate(-32.48 -18.622)"/>
        <path id="prefix__Path_6612" d="M417.683 337.5l-.808-1.511-10.714 5.631-8.794 4.623-17.074 8.975 2.6 4.861 13.382-7.152a24.179 24.179 0 0 1-4.434 8.241c-17.491 21.124-48.35-.528-43.988-24.31a25.422 25.422 0 0 1 .65-2.7c1.818-7.061 6.868-12.645 12.667-16.777a16.773 16.773 0 0 0 5.631.971 17.243 17.243 0 1 0-15.771-23.705c-4.525 3.552-9.017 7.264-12.251 12.073a44.862 44.862 0 0 0-6.367 38.323c6.615 22.445 32.167 39.783 54.719 27.927a35.825 35.825 0 0 0 18.511-25.048l13.7-7.322z" class="prefix__cls-1" data-name="Path 6612" transform="translate(-12.487 -5.915)"/>
        <path id="prefix__Path_6613" d="M373.463 411.495a8.9 8.9 0 0 1 12.813-.079c2.021 1.921 2.248 4.834 2.7 7.429 5.069.851 10.258 1.09 15.259 2.3a27.226 27.226 0 0 1 1.772 3.1c-17.923.159-35.856.267-53.768-.05.981-1.2 1.5-3.229 3.307-3.348 5.08-.872 10.229-1.357 15.339-2.11.415-2.527.628-5.337 2.578-7.242z" class="prefix__cls-2" data-name="Path 6613" transform="translate(-19.525 -46.54)"/>
        <g id="prefix__Group_1299" data-name="Group 1299" transform="translate(341.474 281.051)">
            <g id="prefix__Group_1298" data-name="Group 1298">
                <path id="prefix__Path_6614" d="M375.987 288.76c7.288-1.674 15.23 3.814 15.952 11.332 1.277 7.706-5.585 15.373-13.378 14.957a13.266 13.266 0 0 1-2.574-26.289zm-1.809 3.1c-7.342 2.684-8.933 13.584-2.637 18.233 6.006 5.357 16.751 1.243 17.564-6.775 1.534-7.96-7.643-14.932-14.926-11.458z" class="prefix__cls-2" data-name="Path 6614" transform="translate(-365.226 -288.458)"/>
            </g>
            <path id="prefix__Path_6615" d="M379.967 301.066c3.347-2.368 8.467.762 7.822 4.834a5.154 5.154 0 0 1-7.852 3.665 5.086 5.086 0 0 1 .03-8.499z" class="prefix__cls-1" data-name="Path 6615" transform="translate(-369.275 -292.294)"/>
        </g>
    </g>
</svg>
